# xmcd CD database file
#
# Track frame offsets:
#	150
#	21025
#	44212
#	59535
#	76257
#	95790
#	112512
#	131840
#	147832
#
# Disc length: 2452 seconds
#
# Revision: 1
# Processed by: cddbd v1.5.1PL2 Copyright (c) Steve Scherf et al.
# Submitted via: CD2WAV32(JP) R3.22
#
DISCID=7a099209
DTITLE=日本ファルコム - PerColleVol2-SorceriaN（Disc2)
DYEAR=1991
DGENRE=Game
TTITLE0=ウィンクに気をつけて（メデューサの首より）
TTITLE1=永遠の祈り（天の神々たちより）
TTITLE2=Secret Paradise（失われたタリスマンより）
TTITLE3=オアシス
TTITLE4=エンディングⅡ
TTITLE5=コンバット
TTITLE6=地下ダンジョン（失われたタリスマン）
TTITLE7=地下ダンジョン（ルシフェルの水門より）
TTITLE8=Sorcerian Super Megamix Part 2
EXTD=
EXTT0=
EXTT1=
EXTT2=
EXTT3=
EXTT4=
EXTT5=
EXTT6=
EXTT7=
EXTT8=
PLAYORDER=
